<svg id="Capa_1" data-name="Capa 1" xmlns="http://www.w3.org/2000/svg" viewBox="0 0 653.51 196.75"><title>login-tlf</title><path d="M351.86,181a6.77,6.77,0,0,0-10.48,6.06c.4,5.41,6.3,7.79,11,7.08,6.68-1,11.19-6.64,14.7-11.91,4.12-6.2,8-12.55,11.89-18.91,2.18-3.6,4.33-7.21,6.38-10.88q1.61-2.87,3.19-5.73l1.52-2.76c.23-.42.49-.84.7-1.28a6.14,6.14,0,0,0,.48-2.36,2.58,2.58,0,0,0-1.6-2.38,2.72,2.72,0,0,0-2.84.54c-1.37,1.07-2,2.69-2.78,4.2L381.74,147c-1.49,2.78-3,5.54-4.48,8.34-2.95,5.66-5.85,11.38-9,17q-2.31,4.13-4.52,8.3a50.43,50.43,0,0,1-4.3,7.35c-3.42,4.45-9.65,8-14.77,3.93a6.39,6.39,0,0,1,7-10.65.11.11,0,0,0,.11-.18Z" transform="translate(-66.32 -22.63)"/><path d="M375.62,166.22c1.28,6,2.91,11.89,4.24,17.84.65,2.89,1.48,5.74,2.34,8.58.45,1.48,1,3,1.55,4.4.65,1.61,1.18,3.27,2.73,4.24,2.37,1.48,5.57-1.54,3.94-3.94-1.41-2.07-2.65-4.86-4-7.25s-2.8-5-4.1-7.57a107.8,107.8,0,0,1-6.48-16.37.13.13,0,0,0-.25.07Z" transform="translate(-66.32 -22.63)"/><path d="M393.93,166c-4.12-.6-7.29,2.73-8.31,6.45A15.41,15.41,0,0,0,387.14,184a12.06,12.06,0,0,0,9,6.19,10.08,10.08,0,0,0,9.54-4.09,17.71,17.71,0,0,0,2.45-6.18,21.4,21.4,0,0,0,.62-6.43,9.8,9.8,0,0,0-6-8.63,15.84,15.84,0,0,0-11-.32,3.69,3.69,0,0,0-2.7,2.9,3.85,3.85,0,0,0,2.79,3.65c4.53,1.59,8-2.43,10.22-5.79q2.46-3.81,4.85-7.66a25.45,25.45,0,0,1,2.59-3.66,21,21,0,0,0,3-3.88c1.54-2.81-2.69-5.29-4.29-2.51-1.08,1.89-1.43,4-2.24,6s-1.82,3.75-2.73,5.63c-1.58,3.29-3,7.46-5.95,9.8a5.64,5.64,0,0,1-4.72,1.18c-2.07-.5-3.51-2.9-1.33-4.28a9.53,9.53,0,0,1,4.49-1.07,15.7,15.7,0,0,1,4.83.4,8.8,8.8,0,0,1,6.78,6.5c.81,3.43,0,7.36-1.16,10.63s-3.65,6-7.35,6.58a10.37,10.37,0,0,1-8.89-3,14.48,14.48,0,0,1-3.87-10.47c.15-4.43,2.82-9,7.75-9,.22,0,.28-.36.05-.39Z" transform="translate(-66.32 -22.63)"/><path d="M406.27,165.17l-.21-.51a.28.28,0,0,0-.54.07,6.05,6.05,0,0,0,1.15,3.5,14.37,14.37,0,0,0,2.55,3c2.11,1.92,4.65,3.82,7.57,4.18a8.26,8.26,0,0,0,7.26-3,9.59,9.59,0,0,0,1.34-9.54,21.4,21.4,0,0,0-6.56-8.7c-.92-.79-2.52-1.29-3.62-.47l-.12.09a3.05,3.05,0,0,0-1.07,4.09c.79,1.22,2.75,2.08,4.09,1.07l.11-.09-3.62-.47a29,29,0,0,1,3.47,3.36c.13.16.26.31.38.47-.16-.2-.13-.16.08.12s.45.67.66,1,.28.54.43.8.17.37.07.13c.08.19.15.38.22.57.13.38.23.77.33,1.17,0,.1.23,1.17.16.71a11.83,11.83,0,0,1,0,2.38c0-.52,0,.2-.06.31a8,8,0,0,1-.25,1,4.15,4.15,0,0,1-.72,1.22,3.54,3.54,0,0,1-3.19,1.43,10.16,10.16,0,0,1-4.63-1.85,17.27,17.27,0,0,1-3.39-2.7,8.78,8.78,0,0,1-1.38-1.87c-.34-.64-.47-1.33-.76-2l-.31.4.52.2s0,0,0,0Z" transform="translate(-66.32 -22.63)"/><path d="M424.07,152.09a79.37,79.37,0,0,1,7.91,5,14.59,14.59,0,0,1,5.14,5.9l2.73-1.6A18.79,18.79,0,0,1,436.08,151a17.71,17.71,0,0,1,.7-5.51,15.85,15.85,0,0,1,1-2.48c.45-.92,1.19-1.84,1.14-2.91a1.32,1.32,0,0,0-1.65-1.26c-2,.73-2.85,3.65-3.42,5.5a20.83,20.83,0,0,0-.92,6.66c.11,4.35,1.52,9.1,4.49,12.38,1.21,1.33,3.41-.39,2.48-1.92-1.53-2.52-4-4.14-6.52-5.57a77.57,77.57,0,0,0-9-4.32c-.34-.14-.55.4-.25.57Z" transform="translate(-66.32 -22.63)"/><path d="M66.57,217.42c14-18.3,31.44-36.13,54.51-42,11.1-2.82,23.11-2.83,33.87,1.36s18.94,12.87,27.22,20.77c7,6.68,14.41,12.8,24,15.34,7.59,2,16.44,1.83,22.81-3.29,5-4,8-12.56,3.55-18.13a7.73,7.73,0,0,0-9.25-2,10.72,10.72,0,0,0-6.13,10.17c.15,8.53,7.23,15.32,14.84,18,7.92,2.77,17,2.09,24.81-.63,9.72-3.36,17.85-10.25,25.56-16.83,8.87-7.57,17.7-15,28.5-19.68a77.12,77.12,0,0,1,34.7-6.25c11.51.62,23.71,4.11,31.43,13.19a26.35,26.35,0,0,1,6.48,15.35,14.89,14.89,0,0,1-1.31,7.79c-1.4,2.61-4.88,4.63-7.68,2.65s-.66-5.43,1.36-7.07c2.53-2.07,5.74-3.16,8.69-4.45,6-2.63,12-5.21,18.08-7.79,49.34-21.18,98.86-41.95,148.18-63.18,6.12-2.64,12.22-5.31,18.26-8.11,2.13-1,.6-4.74-1.61-3.84-24.83,10.17-49.22,21.49-73.74,32.38q-37.22,16.52-74.34,33.22-18.24,8.23-36.57,16.27c-3.89,1.69-9.15,3.5-10.93,7.79a5,5,0,0,0,4.2,7c9.92,1.32,9.47-13.15,7.47-19.08-3.25-9.63-11.37-16.48-20.68-20-20.63-7.77-45.85-2.7-63.93,9.08-17.51,11.41-31.52,31.45-54.05,32.56-8.92.44-18.63-2.31-23.7-10.2-3.45-5.37-4.24-14,2.63-17.09,5.42-2.42,9.39,2.2,9.65,7.27.53,10.34-10.15,15.67-19.14,15.52-10.76-.17-20-5.66-27.89-12.6-8-7.1-15.05-15.44-24.3-21s-19.87-7.46-30.4-6.6c-22.25,1.83-40.78,15.41-55.2,31.62-3.55,4-6.89,8.16-10.12,12.41-.1.13.12.26.22.13Z" transform="translate(-66.32 -22.63)"/><path d="M548.63,119c10.46-6.29,13.65-21.55,6.55-31.48l-.64,1.12A244.61,244.61,0,0,0,610,79.8,240.28,240.28,0,0,0,662.16,58q6.87-3.9,13.47-8.25,3.3-2.18,6.52-4.47c1-.74,2.08-1.48,3.11-2.25a4.16,4.16,0,0,0,1.85-2.1,6.27,6.27,0,0,0,.08-1.73,1.24,1.24,0,0,0-.9-1.17,3.72,3.72,0,0,0-3.36.18c-1,.64-1.94,1.48-2.89,2.2q-2.84,2.1-5.73,4.13c-3.73,2.61-7.55,5.11-11.42,7.51a236.9,236.9,0,0,1-24.6,13.28,245.88,245.88,0,0,1-52.5,17.56,213.42,213.42,0,0,1-31.25,4.25c-.5,0-1,.63-.64,1.12,6.89,9.3,4.24,24-5.5,30.32a.24.24,0,0,0,.23.41Z" transform="translate(-66.32 -22.63)"/><path d="M564,131s0,0,0,0,0,0,0,0Z" transform="translate(-66.32 -22.63)"/><path d="M561.16,134.26c5.4-3,12.93-4.76,18.58-1.42,6.92,4.1,6.23,13.45,5.24,20.29a57.92,57.92,0,0,1-3.69,14.32c-.44,1.05,1,2,1.58.92,3-5.46,5.78-11,9-16.32s6.67-10.35,10.31-15.3a305.55,305.55,0,0,1,24.16-28.53A672.28,672.28,0,0,1,683.3,54.87q8.55-7.18,17.34-14.07,4.35-3.4,8.76-6.75c1.47-1.12,3-2.23,4.47-3.31s3.08-2,4.64-3l-4.13-2.37L714.2,27c-.07.55.5,1,1,1l1.93.08a2.74,2.74,0,1,0-1.94-4.68c-1.29,1.11-2.49,2.27-3.82,3.34l-4,3.17c-2.56,2-5.1,4-7.62,6.09Q692,42.28,684.4,48.76q-15.2,13-29.66,26.78C636.3,93.14,618.4,111.6,603,132c-4.19,5.54-8.16,11.25-11.83,17.15a125.5,125.5,0,0,0-10,18.56l1.77.49a94.43,94.43,0,0,0,3.25-13.9,41.27,41.27,0,0,0,.19-12.55,13.58,13.58,0,0,0-5.27-9A14.43,14.43,0,0,0,572,130.4a24.94,24.94,0,0,0-11,3.48.22.22,0,0,0,.22.38Z" transform="translate(-66.32 -22.63)"/><path d="M535.07,110.44a28,28,0,0,0,8.53-6.64c2.3-2.66,4.74-5.74,4.09-9.5a5.17,5.17,0,0,0-3.5-4.26,7.79,7.79,0,0,0-5.84.9c-3.34,1.73-5.23,5.2-6.6,8.57a34.21,34.21,0,0,0-2.34,11.54c-.12,3.5.71,7,3.6,9.26,6.34,4.88,15.44,1.07,21.8-1.81a64.09,64.09,0,0,0,11.24-6.56c3.39-2.48,6.9-5.41,9-9.12.23-.4-.25-1-.67-.67-2.65,1.85-5,4.11-7.48,6.14A70.79,70.79,0,0,1,559,113.8a60.71,60.71,0,0,1-8.63,4.27c-3.23,1.28-6.71,2.57-10.23,2.58-3.18,0-6.55-1.3-8-4.35s-.82-6.52-.31-9.57c.54-3.2,1.45-6.66,3.83-9a12.33,12.33,0,0,1,3.42-2.14,5.68,5.68,0,0,1,3.52-.58c1.28.3,1.34,1,1.2,2.22a12.58,12.58,0,0,1-1.61,4.55,23.62,23.62,0,0,1-7.52,8.07.35.35,0,0,0,.36.61Z" transform="translate(-66.32 -22.63)"/><path d="M515.58,86.15c-.18,1.38.68,3,1.06,4.37l1.46,5c.95,3.23,1.91,6.45,2.83,9.68.83,2.89,1.55,5.81,2.6,8.63a40.76,40.76,0,0,0,1.81,4.25c.77,1.52,1.27,3.06,3,3.62a2.15,2.15,0,0,0,2.69-2.06c-.14-1.76-1.33-2.51-2.35-3.78a21.74,21.74,0,0,1-2.37-3.7,76.93,76.93,0,0,1-3.61-8.47c-1.13-3-2.22-6-3.33-9L517.7,90c-.46-1.26-.75-3-1.7-4a.25.25,0,0,0-.42.17Z" transform="translate(-66.32 -22.63)"/><path d="M480.17,121.92c-1.36-2.91-2.73-5.82-4.07-8.74-.18-.41-.87-.12-.72.31a76.3,76.3,0,0,0,6.44,14.42,58.63,58.63,0,0,0,9.23,12.55c2.7,2.63,7.61,4.66,10.65,1.28,1.51-1.67,1.53-4.06,1.25-6.17a27.48,27.48,0,0,0-1.87-6.89,29.83,29.83,0,0,0-9.51-12.36c-.8-.62-1.89.57-1.37,1.36,2.64,4,5.28,8,7.84,12,1.23,2,2.43,3.93,3.58,5.93a14,14,0,0,1,1,1.74,9.15,9.15,0,0,0,.51,1.41,4.16,4.16,0,0,0,1.42,1.47c.54.32,1.15.29,1.71.61a.84.84,0,0,0,1.22-.94,7.62,7.62,0,0,1,.11-1.42,3.48,3.48,0,0,0-.57-1.71,5.16,5.16,0,0,0-1.23-1.32,8.23,8.23,0,0,1-1.27-1.43c-1.46-1.84-2.88-3.72-4.26-5.62-2.82-3.89-5.56-7.83-8.29-11.78L490.56,118a27.82,27.82,0,0,1,10.38,15.28c.5,1.91,1.11,4.24.5,6.19-.71,2.27-3.11,3.08-5.29,2.64a10.39,10.39,0,0,1-5.26-3.5,67.14,67.14,0,0,1-8.12-11.05,74.72,74.72,0,0,1-6.63-14.32l-.72.31q2.29,4.22,4.55,8.45c.07.14.26,0,.2-.12Z" transform="translate(-66.32 -22.63)"/><path d="M500.7,113.58a2.52,2.52,0,0,0,.2,1c.16.34.32.67.5,1l1.05,2c.65,1.25,1.28,2.5,1.9,3.77s1.24,2.53,1.8,3.83c.29.66.57,1.33.84,2a7.47,7.47,0,0,0,1.06,2.2l1.07-2.57c-.7,0-1.18-.32-1.85-.4-.51-.06-.74.57-.54,1a3.54,3.54,0,0,0,.63.76,1.23,1.23,0,0,1,.31.6,1.5,1.5,0,0,0,2.89-.8,7.15,7.15,0,0,0-1.11-2.07l-1.17-1.92c-.77-1.23-1.49-2.49-2.25-3.72s-1.54-2.47-2.33-3.69c-.4-.63-.8-1.27-1.23-1.89a8.49,8.49,0,0,0-.68-.9,3,3,0,0,0-.64-.45c-.25-.17-.48.11-.45.35Z" transform="translate(-66.32 -22.63)"/><path d="M499.11,108.69l.19.18.57.44.68.29.75.1a2.26,2.26,0,0,0,1.09-.24,1.41,1.41,0,0,0,.62-.37,1.44,1.44,0,0,0,.51-.5,1.53,1.53,0,0,0,.36-.63,2,2,0,0,0,.24-1.09v-.25a3.07,3.07,0,0,0-.4-1.48,2.89,2.89,0,0,0-1.06-1,2.8,2.8,0,0,0-1.47-.4,2.18,2.18,0,0,0-1.13.25,2.11,2.11,0,0,0-.94.61,2.83,2.83,0,0,0-.76,1.29,2.91,2.91,0,0,0,.76,2.85Z" transform="translate(-66.32 -22.63)"/><path d="M519.7,108.33a7.32,7.32,0,0,0-5.66,4.43,14.83,14.83,0,0,0-1,8.53,7.88,7.88,0,0,0,4.68,6.2c2.9,1.09,6-.14,8.28-2a30.15,30.15,0,0,0,3.36-3.51c.5-.57,1-1.1,1.54-1.67.65-.73,1.51-1.64,1.42-2.73a1.88,1.88,0,0,0-1.29-1.7c-1.72-.71-3.63,1.18-4.58,2.38s-1.81,2.47-2.75,3.67c-1.54,2-4.07,4.22-6.59,2.45s-2.67-5.48-2.45-8.2c.27-3.24,1.85-6.2,5.11-7.2.35-.11.3-.7-.09-.67Z" transform="translate(-66.32 -22.63)"/><path d="M391,167.42l-.07-.07h0a4.92,4.92,0,0,1,.46.84.64.64,0,0,1,.05.24c0,.06-.05.07-.11.07h-.1a.94.94,0,0,1-.44-.13v.05l0,0s0,0,0,0h0s-.05,0,0,.06a1,1,0,0,0,.51.12s.16,0,.19-.06,0-.14,0-.19a2.45,2.45,0,0,0-.24-.52l-.15-.26-.08-.13,0,0a.15.15,0,0,0,.06,0Z" transform="translate(-66.32 -22.63)"/><path d="M390.59,167.4c-.07-.28.33-.35.52-.32a1,1,0,0,1,.58.32c.26.3.45.86.11,1.17,0,0,0,0,0,0a.83.83,0,0,0,0-1,1,1,0,0,0-1-.5c-.16,0-.34.16-.29.35,0,0,0,0,0,0Z" transform="translate(-66.32 -22.63)"/><path d="M474.49,128.36c6.39,15.46,20.18,29,19.91,46.7,0,3.77-.79,7.81-3.18,10.86-.75,1-1.9,2.1-3.23,1.77-1.59-.4-2.81-2.26-3.55-3.6-3.22-5.94-1.38-14.8,2.66-20,6.13-7.81,16.87-8.07,24.95-12.81a1.5,1.5,0,0,0-1.52-2.59c-7.95,4.67-17.91,5.06-24.51,12.09-5.28,5.62-7.79,15.2-5.14,22.56,1.21,3.37,4.25,8,8.42,7.28,3.83-.66,6-5.1,7.06-8.4,2.89-8.92-.09-19-3.94-27.14-4.48-9.47-11-17.87-15-27.57-.72-1.76-3.63-1-2.89.8Z" transform="translate(-66.32 -22.63)"/><path d="M471.61,97.5c-.8-4.1-3.15-8.11-7.39-9.32-3.84-1.1-7.84.52-10.74,3-6.24,5.44-8.45,15.09-8.16,23a71.59,71.59,0,0,0,2.53,14.88,48.28,48.28,0,0,0,6.21,14.78c2.78,4.18,6.46,7.95,11.21,9.82a14.62,14.62,0,0,0,13-1.28c3.91-2.25,4.58-6.74,4-10.86-.67-4.8-2.62-9.35-4.42-13.81-.72-1.77-3.62-1-2.9.79a82.31,82.31,0,0,1,3.87,10.95c.68,2.76,1.36,6.43-.44,8.92a8.83,8.83,0,0,1-4.19,2.67,10.6,10.6,0,0,1-5.74.43c-4.13-.85-7.55-3.7-10.14-6.9-6-7.5-8.11-17.32-9.58-26.6-1.14-7.18,0-15.33,4.09-21.47,1.92-2.9,5-5.67,8.67-5.76,4.3-.11,6.52,3.71,7.25,7.47.37,1.89,3.26,1.09,2.9-.8Z" transform="translate(-66.32 -22.63)"/></svg>